# 3ds Max Wavefront OBJ Exporter v0.99 - (c)2007 guruware
# File Created: 04.05.2022 12:28:18

mtllib tree.mtl

#
# object Box001
#

v  0.0000 0.9718 -9.1371
v  5.2209 0.9718 -6.8837
v  5.2209 0.9718 -1.0138
v  0.0000 0.9718 1.7823
v  -2.3540 32.5211 -3.7997
v  -1.0688 32.5211 -4.4626
v  -1.0688 32.5211 -5.8543
v  -2.3540 32.5211 -6.3885
v  2.8894 7.7738 -2.4821
v  0.0000 7.7738 -0.9346
v  2.8894 7.7738 -5.7307
v  0.0000 7.7738 -6.9777
v  -5.2209 0.9718 -6.8837
v  -5.2209 0.9718 -1.0138
v  -2.8894 7.7738 -2.4821
v  -2.8894 7.7738 -5.7307
v  -3.6393 32.5211 -5.8543
v  -3.6393 32.5211 -4.4626
v  0.0000 13.6968 -2.6853
v  -2.9621 13.6968 -4.2717
v  2.9621 13.6968 -4.2717
v  2.9621 13.6968 -7.6021
v  0.0000 13.6968 -8.8806
v  -2.9621 13.6968 -7.6021
v  0.0000 17.5290 -3.7444
v  -2.9621 17.5290 -5.3308
v  2.9621 17.5290 -5.3308
v  2.9621 17.5290 -8.6611
v  -3.3335 22.9632 -23.5828
v  -4.4723 22.7516 -24.6285
v  -4.4652 23.8258 -25.4552
v  -2.9214 23.8261 -24.0103
v  -5.6447 22.9516 -23.8826
v  -6.0678 23.8332 -24.4286
v  -2.9621 17.5290 -8.6611
v  -0.9464 19.8650 4.9426
v  -0.8145 19.7038 4.9432
v  -0.6378 19.5846 4.9554
v  -0.3077 19.5895 5.0045
v  0.0000 19.8759 5.0905
v  0.0000 20.7442 5.2145
v  -0.3077 21.0306 5.1976
v  -0.6376 21.0355 5.1363
v  -0.8144 20.9167 5.0893
v  -0.9464 20.7561 5.0459
v  0.3077 19.5895 5.0045
v  0.6378 19.5846 4.9554
v  0.8145 19.7038 4.9432
v  0.9464 19.8650 4.9426
v  0.9464 20.7561 5.0459
v  0.8144 20.9167 5.0893
v  0.6376 21.0355 5.1363
v  0.3077 21.0306 5.1976
v  2.9621 23.0911 -6.7527
v  2.9621 23.0911 -3.4223
v  -4.4652 24.9266 -25.3740
v  -2.9200 24.6051 -23.9575
v  -6.0702 24.6895 -24.3692
v  -2.9621 23.0911 -3.4223
v  -2.9621 23.0911 -6.7527
v  -0.8960 15.6882 -10.3930
v  1.5395 15.2859 -9.2672
v  -2.8676 15.4189 -9.2840
v  -2.8769 19.2080 -9.6064
v  -2.9008 22.3629 -8.6338
v  0.0000 23.0911 -8.0312
v  -1.0556 22.3015 -9.7137
v  1.5022 22.3095 -8.7716
v  1.2790 18.7550 -10.3248
v  -1.4310 18.7238 -12.7229
v  -1.9949 18.5669 -12.8178
v  -3.7084 21.0209 -15.2399
v  -3.1153 20.9574 -15.0329
v  -3.1077 18.3045 -12.1681
v  -4.3272 21.0154 -14.9968
v  -3.4438 19.6967 -12.6796
v  -4.8759 22.8475 -15.4022
v  -3.5000 22.4853 -12.0123
v  -4.9252 24.4307 -14.9027
v  -1.8854 22.4546 -12.5310
v  -3.9115 24.4171 -15.3244
v  -0.4782 22.1536 -11.5195
v  -2.8978 24.4307 -14.9027
v  -0.7613 19.5960 -12.6420
v  -2.9044 22.7519 -15.4617
v  -4.6409 22.0597 -17.5856
v  -3.5311 22.3650 -18.0091
v  -5.4442 22.3402 -17.7750
v  -6.1081 23.6962 -18.0684
v  -6.1100 24.9994 -17.6238
v  -4.8037 25.3212 -17.2587
v  -3.0148 24.8871 -17.9685
v  -3.0160 23.7015 -18.3632
v  -1.2920 16.9293 -11.4458
v  0.3059 16.8339 -10.8189
v  -3.0279 16.6178 -10.4533
v  -3.1604 19.4523 -11.1430
v  -3.2004 22.4241 -10.3231
v  -1.4705 22.3781 -11.1223
v  0.5120 22.2315 -10.1455
v  0.2588 19.1755 -11.4834
v  -4.5029 22.1358 -20.4107
v  -3.5332 22.4438 -20.4545
v  -5.5619 22.4230 -20.4168
v  -6.3851 23.8177 -20.2810
v  -6.3572 25.3530 -20.5955
v  -2.7359 23.8121 -20.3278
v  -2.7547 25.2001 -20.6548
v  -3.3956 25.0844 -18.2688
v  -4.8218 25.4451 -17.6981
v  -3.1863 25.3290 -20.5165
v  -3.5638 25.0265 -23.1021
v  -4.4935 25.3399 -23.4562
v  -5.3902 25.0740 -23.4068
v  -5.9155 25.4441 -20.4481
v  -5.7168 25.1611 -17.9632
v  -4.5538 25.3936 -20.5474
v  0.0000 23.0911 -1.8359
v  0.0000 21.5901 -1.1966
v  0.3375 21.2681 -1.5112
v  0.9201 21.2767 -1.6969
v  1.3796 21.4927 -1.6526
v  -1.3796 21.4927 -1.6526
v  -0.9201 21.2767 -1.6969
v  -0.3375 21.2681 -1.5112
v  -1.3331 19.1743 -2.0844
v  -1.2597 19.6513 -2.1295
v  -1.2597 20.9706 -1.8671
v  0.0000 19.1241 -1.7664
v  -0.3375 19.3520 -1.9564
v  -0.9205 19.3434 -2.1051
v  1.3331 19.1743 -2.0844
v  0.9205 19.3434 -2.1053
v  0.3375 19.3520 -1.9566
v  1.2597 20.9706 -1.8671
v  1.2597 19.6513 -2.1295
v  0.3375 21.1004 -1.3908
v  0.6992 21.1057 -1.4581
v  -0.6992 21.1057 -1.4581
v  -0.3375 21.1004 -1.3908
v  -1.0380 19.8219 -1.6706
v  -1.0380 20.7992 -1.5572
v  -0.3375 19.5197 -1.6026
v  -0.6995 19.5144 -1.6565
v  0.6995 19.5144 -1.6565
v  0.3375 19.5197 -1.6026
v  1.0380 20.7992 -1.5572
v  1.0380 19.8219 -1.6706
v  0.0000 19.5901 5.0111
v  0.0000 21.0300 5.2059
v  0.0000 21.2674 -1.4956
v  1.1146 21.1466 -1.7854
v  -1.1146 21.1466 -1.7854
v  -1.1148 19.4743 -2.1280
v  0.0000 19.3527 -1.9441
v  1.1148 19.4743 -2.1282
v  0.0000 21.0996 -1.3817
v  0.8932 20.9754 -1.5096
v  -0.8932 20.9754 -1.5096
v  -0.8933 19.6451 -1.6698
v  0.0000 19.5205 -1.5954
v  0.8933 19.6451 -1.6698
v  -0.8551 21.8109 2.2555
v  -0.9936 21.9801 2.2547
v  -0.6696 21.6858 2.2682
v  -0.3231 21.6909 2.3197
v  0.0000 21.6916 2.3267
v  0.3231 21.6909 2.3197
v  0.6696 21.6858 2.2682
v  0.8551 21.8109 2.2555
v  0.9936 21.9801 2.2547
v  0.9936 22.9156 2.3632
v  0.8550 23.0843 2.4088
v  0.6693 23.2090 2.4581
v  0.3231 23.2039 2.5225
v  0.0000 23.2032 2.5312
v  -0.3231 23.2039 2.5225
v  -0.6693 23.2090 2.4581
v  -0.8550 23.0843 2.4088
v  -0.9936 22.9156 2.3632
v  8.2859 21.8093 -4.3184
v  8.2868 21.8054 -4.3219
v  8.2878 21.8017 -4.3253
v  8.2878 21.8017 -4.3256
v  8.2868 21.8053 -4.3282
v  8.2859 21.8092 -4.3308
v  8.2848 21.8134 -4.3303
v  8.2839 21.8173 -4.3269
v  8.2829 21.8210 -4.3235
v  8.2829 21.8210 -4.3231
v  8.2838 21.8174 -4.3206
v  8.2848 21.8135 -4.3180
v  2.8373 23.5914 -6.1814
v  2.7327 24.0101 -5.0561
v  2.7327 24.0101 -4.9246
v  2.8485 23.5463 -3.8458
v  2.0459 26.7614 -5.5055
v  2.4066 25.3164 -5.5652
v  2.5279 24.8308 -5.6166
v  2.0504 26.7436 -3.8977
v  2.2018 26.1371 -4.6996
v  2.2018 26.1371 -4.8311
v  2.5279 24.8308 -4.1904
v  2.4066 25.3164 -4.1391
v  7.3864 21.5254 -4.5117
v  7.3806 21.5275 -4.3833
v  7.0682 22.8201 -5.0238
v  7.2007 22.3358 -5.0700
v  6.8554 23.6524 -4.1553
v  6.8496 23.6546 -4.2898
v  7.1894 22.3345 -3.6490
v  7.0795 22.8214 -3.5925
v  2.6303 24.4204 -5.3363
v  2.6303 24.4204 -4.5575
v  2.3042 25.7268 -5.1982
v  2.3042 25.7268 -4.4194
v  7.2734 21.8908 -4.7551
v  7.2797 21.9093 -4.0442
v  6.9536 23.2157 -4.6849
v  6.9473 23.1971 -3.8381
v  7.8101 21.8912 -4.2150
v  7.7676 22.0613 -4.0629
v  7.2198 22.3382 -3.6877
v  7.3135 21.9312 -4.0592
v  7.8515 21.7254 -4.3634
v  7.4113 21.5506 -4.3984
v  7.8515 21.7254 -4.3805
v  7.4142 21.5496 -4.4822
v  7.8111 21.8872 -4.4910
v  7.3116 21.9173 -4.7302
v  7.7692 22.0548 -4.6055
v  7.2274 22.3315 -5.0186
v  7.7228 22.2408 -4.5858
v  7.1080 22.7862 -4.9730
v  7.6804 22.4108 -4.4337
v  7.0022 23.1784 -4.6297
v  7.6390 22.5766 -4.2854
v  6.9029 23.5875 -4.2625
v  7.6390 22.5766 -4.2683
v  6.9057 23.5864 -4.1757
v  7.6794 22.4148 -4.1578
v  6.9979 23.1738 -3.8908
v  7.7212 22.2472 -4.0433
v  7.1118 22.7942 -3.6370
# 244 vertices

vn 0.0000 -0.5097 -0.8604
vn 0.7464 -0.4639 -0.4771
vn 0.7603 -0.4609 0.4577
vn 0.0000 -0.4690 0.8832
vn -0.0555 0.6855 0.7259
vn 0.5190 0.7644 0.3826
vn 0.5076 0.7520 -0.4205
vn -0.0454 0.6877 -0.7246
vn 0.8057 0.2808 0.5216
vn 0.0000 0.3319 0.9433
vn 0.8501 0.1125 -0.5145
vn 0.0000 -0.0019 -1.0000
vn -0.7464 -0.4639 -0.4771
vn -0.7603 -0.4609 0.4577
vn -0.8057 0.2808 0.5216
vn -0.8501 0.1125 -0.5145
vn -0.6857 0.5963 -0.4173
vn -0.6986 0.6028 0.3854
vn 0.0000 0.2756 0.9613
vn -0.8566 0.1375 0.4974
vn 0.8566 0.1375 0.4974
vn 0.8456 -0.1959 -0.4966
vn 0.0512 -0.4630 -0.8849
vn -0.8611 -0.2472 -0.4443
vn 0.0000 -0.3684 0.9297
vn -0.9301 -0.0667 0.3613
vn 0.9301 -0.0667 0.3613
vn 0.8881 -0.0346 -0.4583
vn 0.6575 -0.7178 -0.2291
vn 0.0615 -0.8100 -0.5833
vn 0.0808 -0.2549 -0.9636
vn 0.8663 -0.2543 -0.4301
vn -0.6132 -0.7434 -0.2669
vn -0.8099 -0.2736 -0.5189
vn -0.9959 -0.0197 -0.0881
vn -0.8010 -0.4173 0.4292
vn -0.6071 -0.7014 0.3734
vn -0.2648 -0.9147 0.3053
vn -0.0592 -0.9212 0.3847
vn 0.0000 -0.1742 0.9847
vn 0.0000 -0.0960 0.9954
vn -0.1170 0.3737 0.9202
vn -0.3121 0.4115 0.8563
vn -0.5135 0.2856 0.8091
vn -0.7638 0.0766 0.6408
vn 0.0592 -0.9212 0.3847
vn 0.2648 -0.9147 0.3053
vn 0.6071 -0.7014 0.3734
vn 0.8010 -0.4173 0.4292
vn 0.7638 0.0766 0.6408
vn 0.5135 0.2856 0.8091
vn 0.3121 0.4115 0.8563
vn 0.1170 0.3737 0.9202
vn 0.8708 0.2855 -0.4003
vn 0.8675 0.1738 0.4661
vn 0.0758 0.5894 -0.8043
vn 0.8038 0.4662 -0.3696
vn -0.7482 0.4912 -0.4461
vn -0.8706 0.0135 0.4917
vn -0.9140 0.1927 -0.3569
vn -0.0206 -0.6380 -0.7697
vn 0.4822 -0.3919 -0.7835
vn -0.7897 -0.4256 -0.4419
vn -0.9977 -0.0087 0.0679
vn -0.7767 0.6191 -0.1157
vn 0.0843 0.6477 -0.7572
vn -0.0130 0.9934 -0.1142
vn 0.5319 0.6207 -0.5761
vn 0.7443 0.0397 -0.6666
vn 0.4129 -0.4542 -0.7894
vn 0.0489 -0.6589 -0.7506
vn -0.0540 -0.8565 -0.5133
vn 0.4903 -0.5356 -0.6876
vn -0.6317 -0.5914 -0.5012
vn -0.7364 -0.6557 -0.1667
vn -0.9498 -0.0951 0.2981
vn -0.9235 -0.1655 0.3461
vn -0.6753 0.6118 0.4119
vn -0.5558 0.6445 0.5252
vn -0.1040 0.8835 0.4568
vn -0.0180 0.8728 0.4877
vn 0.7000 0.5380 -0.4696
vn 0.4834 0.8261 0.2895
vn 0.7063 -0.1507 -0.6917
vn 0.9572 -0.0238 -0.2883
vn -0.0908 -0.9669 -0.2385
vn 0.6253 -0.7476 -0.2239
vn -0.7088 -0.7052 0.0164
vn -0.9499 -0.2340 0.2073
vn -0.8048 0.5218 0.2830
vn -0.0377 0.9267 0.3738
vn 0.8007 0.5881 0.1139
vn 0.9831 -0.1789 0.0397
vn 0.0101 -0.6405 -0.7679
vn 0.4846 -0.3877 -0.7841
vn -0.8133 -0.4544 -0.3633
vn -0.9838 -0.0313 0.1765
vn -0.7011 0.6972 0.1496
vn 0.0502 0.9980 0.0395
vn 0.5645 0.6944 -0.4462
vn 0.7524 0.0105 -0.6587
vn 0.0237 -0.9963 -0.0832
vn 0.6120 -0.7885 -0.0607
vn -0.6009 -0.7975 -0.0536
vn -0.9698 -0.2428 0.0254
vn -0.7489 0.6614 -0.0411
vn 0.9697 -0.2399 0.0464
vn 0.7760 0.6302 -0.0276
vn 0.2968 0.9463 0.1281
vn -0.0310 0.9880 0.1515
vn 0.1777 0.9841 0.0075
vn 0.3395 0.9322 -0.1254
vn 0.0363 0.9916 -0.1241
vn -0.2678 0.9537 -0.1370
vn -0.0938 0.9955 0.0088
vn -0.2724 0.9596 0.0713
vn 0.0426 0.9990 -0.0156
vn 0.0292 0.3150 0.9486
vn -0.0000 0.0178 0.9998
vn 0.2150 0.0094 0.9766
vn 0.3806 -0.1890 0.9052
vn 0.2685 0.2998 0.9155
vn -0.2685 0.2998 0.9155
vn -0.3806 -0.1890 0.9052
vn -0.2150 0.0094 0.9766
vn -0.3429 -0.4863 0.8037
vn 0.1589 -0.3067 0.9384
vn -0.0292 -0.1185 0.9925
vn 0.0002 -0.2676 0.9635
vn -0.1753 -0.3428 0.9229
vn -0.3430 -0.0692 0.9368
vn 0.3427 -0.4862 0.8038
vn 0.3430 -0.0689 0.9368
vn 0.1755 -0.3426 0.9230
vn 0.0292 -0.1185 0.9925
vn -0.1592 -0.3069 0.9383
vn 0.0087 0.9812 0.1929
vn 0.2851 0.9445 0.1629
vn -0.2851 0.9445 0.1629
vn -0.0087 0.9812 0.1929
vn -0.8522 -0.3473 0.3914
vn -0.9289 0.1908 0.3175
vn -0.0316 -0.8887 0.4575
vn -0.2591 -0.8532 0.4528
vn 0.2591 -0.8532 0.4527
vn 0.0316 -0.8887 0.4574
vn 0.9289 0.1908 0.3175
vn 0.8522 -0.3473 0.3914
vn 0.0000 -0.9464 0.3231
vn 0.0000 0.4401 0.8980
vn 0.0000 -0.0760 0.9971
vn 0.3844 -0.0940 0.9184
vn -0.3844 -0.0940 0.9184
vn -0.3015 -0.2574 0.9180
vn 0.0003 -0.2340 0.9722
vn 0.3010 -0.2576 0.9182
vn 0.0000 0.9738 0.2272
vn 0.7024 0.6779 0.2169
vn -0.7024 0.6779 0.2169
vn -0.5988 -0.6586 0.4557
vn 0.0000 -0.8882 0.4594
vn 0.5989 -0.6586 0.4556
vn -0.6990 -0.7129 -0.0567
vn -0.9759 -0.2184 0.0001
vn -0.3122 -0.9472 -0.0726
vn 0.0188 -0.9948 -0.1005
vn 0.0000 -0.9962 -0.0867
vn -0.0188 -0.9948 -0.1005
vn 0.3122 -0.9472 -0.0726
vn 0.6990 -0.7129 -0.0567
vn 0.9759 -0.2184 0.0001
vn 0.9000 0.4356 0.0152
vn 0.6529 0.7563 0.0423
vn 0.2707 0.9599 0.0729
vn 0.0077 0.9925 0.1218
vn 0.0000 0.9946 0.1039
vn -0.0077 0.9925 0.1218
vn -0.2707 0.9599 0.0729
vn -0.6529 0.7563 0.0423
vn -0.9000 0.4356 0.0152
vn 0.7364 -0.2293 0.6365
vn -0.3816 -0.6673 0.6396
vn 0.7462 -0.5691 0.3454
vn 0.7650 -0.5441 -0.3446
vn 0.3612 -0.4627 -0.8096
vn 0.7680 -0.0932 -0.6337
vn 0.8250 0.3375 -0.4532
vn -0.6908 0.3786 -0.6160
vn 0.8447 0.5006 -0.1894
vn 0.8458 0.4876 0.2164
vn 0.7115 0.5087 0.4848
vn 0.8114 0.2380 0.5338
vn 0.9702 0.2422 0.0000
vn 0.7660 -0.4364 -0.4721
vn 0.7075 -0.5845 0.3974
vn 0.9702 0.2422 -0.0000
vn 0.8125 0.3598 -0.4587
vn 0.8282 0.4212 -0.3698
vn 0.7954 0.1482 -0.5876
vn 0.4254 0.1994 0.8827
vn 0.8502 0.5125 0.1207
vn 0.8535 0.5078 -0.1172
vn 0.6834 -0.0433 0.7288
vn 0.7727 0.4026 0.4907
vn 0.2609 -0.8423 -0.4717
vn 0.1265 -0.8954 0.4269
vn 0.5666 0.3939 -0.7237
vn 0.4560 -0.2031 -0.8665
vn 0.5655 0.7246 0.3940
vn 0.6181 0.7293 -0.2932
vn 0.2507 -0.3905 0.8858
vn 0.4291 0.2436 0.8698
vn 0.6599 -0.3044 -0.6869
vn 0.5895 -0.4518 0.6696
vn 0.7868 0.5089 -0.3493
vn 0.7237 0.5032 0.4723
vn 0.2327 -0.5126 -0.8265
vn 0.0909 -0.6576 0.7479
vn 0.6203 0.6032 -0.5013
vn 0.4844 0.5775 0.6571
vn 0.1182 -0.6455 0.7546
vn 0.3511 -0.3293 0.8765
vn 0.6766 -0.1504 0.7208
vn 0.3987 -0.5597 0.7265
vn 0.2126 -0.8803 0.4242
vn 0.5153 -0.7722 0.3717
vn 0.3212 -0.8221 -0.4701
vn 0.6352 -0.6840 -0.3586
vn 0.2787 -0.4932 -0.8240
vn 0.5201 -0.3964 -0.7565
vn 0.4946 -0.1325 -0.8590
vn 0.7945 0.0365 -0.6061
vn 0.6788 0.4146 -0.6061
vn 0.7937 0.4101 -0.4493
vn 0.6978 0.5664 -0.4384
vn 0.7611 0.5280 -0.3767
vn 0.7691 0.6018 -0.2154
vn 0.8023 0.5712 -0.1734
vn 0.7783 0.5783 0.2445
vn 0.8072 0.5548 0.2014
vn 0.7005 0.5134 0.4957
vn 0.7285 0.5027 0.4655
vn 0.6568 0.2976 0.6928
vn 0.8050 0.3303 0.4928
# 244 vertex normals

vt 0.5000 1.0000 0.0000
vt 0.0000 1.0000 0.0000
vt 0.0000 0.0000 0.0000
vt 0.5000 0.0000 0.0000
vt 1.0000 0.0000 0.0000
vt 1.0000 1.0000 0.0000
vt 0.1631 0.0000 0.0000
vt 0.3374 0.0000 0.0000
vt 0.1632 0.0000 0.0000
vt 0.6626 0.0000 0.0000
vt 0.8369 0.0000 0.0000
vt 0.8368 0.0000 0.0000
vt 0.6340 0.0000 0.0000
vt 0.8652 0.0000 0.0000
vt 0.1348 0.0000 0.0000
vt 0.3660 0.0000 0.0000
vt 0.1346 0.0000 0.0000
vt 0.8654 0.0000 0.0000
vt 1.0000 0.0463 0.0000
vt 1.0000 0.5262 0.0000
vt 1.0000 0.5677 0.0000
vt 1.0000 0.9885 0.0000
vt 1.0000 0.9537 0.0000
vt 1.0000 0.4738 0.0000
vt 1.0000 0.4323 0.0000
vt 1.0000 0.0115 0.0000
vt 1.0000 0.5461 0.0000
vt 1.0000 0.4539 0.0000
# 28 texture coords

o Box001
g Box001
usemtl wire_196088225
s 1
f 1/1/1 2/2/2 3/3/3 4/4/4 
f 5/4/5 6/5/6 7/6/7 8/1/8 
s 2
f 4/4/4 3/5/3 9/6/9 10/1/10 
s 4
f 3/3/3 2/5/2 11/6/11 9/2/9 
s 2
f 2/3/2 1/4/1 12/1/12 11/2/11 
f 13/3/13 14/5/14 15/6/15 16/2/16 
s 1
f 8/1/8 17/2/17 18/3/18 5/4/5 
s 4
f 10/1/10 15/2/15 14/3/14 4/4/4 
s 1
f 4/4/4 14/5/14 13/6/13 1/1/1 
s 4
f 1/4/1 13/5/13 16/6/16 12/1/12 
f 15/3/15 10/4/10 19/4/19 20/3/20 
s 2
f 10/4/10 9/5/9 21/5/21 19/4/19 
s 4
f 9/5/9 11/6/11 22/6/22 21/5/21 
s 1
f 11/6/11 12/1/12 23/1/23 22/6/22 
f 12/1/12 16/2/16 24/2/24 23/1/23 
s 2
f 16/2/16 15/3/15 20/3/20 24/2/24 
s 4
f 20/3/20 19/4/19 25/4/25 26/3/26 
s 2
f 19/4/19 21/5/21 27/5/27 25/4/25 
s 4
f 21/5/21 22/6/22 28/6/28 27/5/27 
s 2
f 29/6/29 30/1/30 31/1/31 32/6/32 
s 4
f 30/1/30 33/2/33 34/2/34 31/1/31 
s 2
f 24/2/24 20/3/20 26/3/26 35/2/35 
s 1
f 36/3/36 37/3/37 38/7/38 39/8/39 40/4/40 41/4/41 42/8/42 43/9/43 44/3/44 45/3/45 
f 40/4/40 46/10/46 47/11/47 48/5/48 49/5/49 50/5/50 51/5/51 52/12/52 53/10/53 41/4/41 
s 4
f 27/5/27 28/6/28 54/6/54 55/5/55 
s 8
f 32/6/32 31/1/31 56/1/56 57/6/57 
s 1
f 31/1/31 34/2/34 58/2/58 56/1/56 
s 2
f 35/2/35 26/3/26 59/3/59 60/2/60 
s 1
f 22/6/22 23/1/23 61/1/61 62/6/62 
f 23/1/23 24/2/24 63/2/63 61/1/61 
s 2
f 24/2/24 35/2/35 64/2/64 63/2/63 
f 35/2/35 60/2/60 65/2/65 64/2/64 
s 16
f 60/2/60 66/1/66 67/1/67 65/2/65 
f 66/1/66 54/6/54 68/6/68 67/1/67 
s 1
f 54/6/54 28/6/28 69/6/69 68/6/68 
f 28/6/28 22/6/22 62/6/62 69/6/69 
f 70/6/70 71/1/71 72/1/72 73/6/73 
f 71/1/71 74/2/74 75/2/75 72/1/72 
s 2
f 74/2/74 76/2/76 77/2/77 75/2/75 
f 76/2/76 78/2/78 79/2/79 77/2/77 
s 16
f 78/2/78 80/1/80 81/1/81 79/2/79 
s 2
f 80/1/80 82/6/82 83/6/83 81/1/81 
s 1
f 82/6/82 84/6/84 85/6/85 83/6/83 
f 84/6/84 70/6/70 73/6/73 85/6/85 
f 73/6/73 72/1/72 86/1/86 87/6/87 
f 72/1/72 75/2/75 88/2/88 86/1/86 
s 2
f 75/2/75 77/2/77 89/2/89 88/2/88 
f 77/2/77 79/2/79 90/2/90 89/2/89 
s 16
f 79/2/79 81/1/81 91/1/91 90/2/90 
f 81/1/81 83/6/83 92/6/92 91/1/91 
s 1
f 83/6/83 85/6/85 93/6/93 92/6/92 
f 85/6/85 73/6/73 87/6/87 93/6/93 
f 62/6/62 61/1/61 94/1/94 95/6/95 
f 61/1/61 63/2/63 96/2/96 94/1/94 
s 2
f 63/2/63 64/2/64 97/2/97 96/2/96 
f 64/2/64 65/2/65 98/2/98 97/2/97 
s 16
f 65/2/65 67/1/67 99/1/99 98/2/98 
f 67/1/67 68/6/68 100/6/100 99/1/99 
s 1
f 68/6/68 69/6/69 101/6/101 100/6/100 
f 69/6/69 62/6/62 95/6/95 101/6/101 
f 71/1/71 70/6/70 95/6/95 94/1/94 
f 74/2/74 71/1/71 94/1/94 96/2/96 
s 2
f 76/2/76 74/2/74 96/2/96 97/2/97 
f 78/2/78 76/2/76 97/2/97 98/2/98 
s 16
f 80/1/80 78/2/78 98/2/98 99/1/99 
f 82/6/82 80/1/80 99/1/99 100/6/100 
s 1
f 84/6/84 82/6/82 100/6/100 101/6/101 
f 70/6/70 84/6/84 101/6/101 95/6/95 
f 87/6/87 86/1/86 102/1/102 103/6/103 
f 86/1/86 88/2/88 104/2/104 102/1/102 
s 2
f 88/2/88 89/2/89 105/2/105 104/2/104 
f 89/2/89 90/2/90 106/2/106 105/2/105 
s 1
f 92/6/92 93/6/93 107/6/107 108/6/108 
f 93/6/93 87/6/87 103/6/103 107/6/107 
f 103/6/103 102/1/102 30/1/30 29/6/29 
f 102/1/102 104/2/104 33/2/33 30/1/30 
s 2
f 104/2/104 105/2/105 34/2/34 33/2/33 
f 105/2/105 106/2/106 58/2/58 34/2/34 
s 1
f 108/6/108 107/6/107 32/6/32 57/6/57 
f 107/6/107 103/6/103 29/6/29 32/6/32 
s 16
f 91/1/91 92/6/92 109/6/109 110/1/110 
f 92/6/92 108/6/108 111/6/111 109/6/109 
f 108/6/108 57/6/57 112/6/112 111/6/111 
f 57/6/57 56/1/56 113/1/113 112/6/112 
f 56/1/56 58/2/58 114/2/114 113/1/113 
f 58/2/58 106/2/106 115/2/115 114/2/114 
f 106/2/106 90/2/90 116/2/116 115/2/115 
f 90/2/90 91/1/91 110/1/110 116/2/116 
f 110/1/110 109/6/109 117/1/117 
f 109/6/109 111/6/111 117/1/117 
f 111/6/111 112/6/112 117/1/117 
f 112/6/112 113/1/113 117/1/117 
f 113/1/113 114/2/114 117/1/117 
f 114/2/114 115/2/115 117/1/117 
f 115/2/115 116/2/116 117/1/117 
f 116/2/116 110/1/110 117/1/117 
s 8
f 55/5/55 118/4/118 119/4/119 120/13/120 121/14/121 122/5/122 
f 118/4/118 59/3/59 123/3/123 124/15/124 125/16/125 119/4/119 
f 59/3/59 26/3/26 126/3/126 127/3/127 128/3/128 123/3/123 
f 26/3/26 25/4/25 129/4/129 130/16/130 131/17/131 126/3/126 
f 25/4/25 27/5/27 132/5/132 133/18/133 134/13/134 129/4/129 
f 27/5/27 55/5/55 122/5/122 135/5/135 136/5/136 132/5/132 
f 121/14/121 120/13/120 137/10/137 138/12/138 
f 125/16/125 124/15/124 139/9/139 140/8/140 
f 128/3/128 127/3/127 141/3/141 142/3/142 
f 131/17/131 130/16/130 143/8/143 144/7/144 
f 134/13/134 133/18/133 145/11/145 146/10/146 
f 136/5/136 135/5/135 147/5/147 148/5/148 
s 1
f 39/8/39 149/4/149 40/4/40 
f 41/4/41 150/4/150 42/8/42 
f 40/4/40 149/4/149 46/10/46 
f 53/10/53 150/4/150 41/4/41 
f 119/4/119 151/4/151 120/13/120 
f 121/14/121 152/5/152 122/5/122 
f 123/3/123 153/3/153 124/15/124 
f 125/16/125 151/4/151 119/4/119 
f 126/3/126 154/3/154 127/3/127 
f 128/3/128 153/3/153 123/3/123 
f 129/4/129 155/4/155 130/16/130 
f 131/17/131 154/3/154 126/3/126 
f 132/5/132 156/5/156 133/18/133 
f 134/13/134 155/4/155 129/4/129 
f 122/5/122 152/5/152 135/5/135 
f 136/5/136 156/5/156 132/5/132 
s 8
f 137/10/137 120/13/120 151/4/151 157/4/157 
f 121/14/121 138/12/138 158/5/158 152/5/152 
f 139/9/139 124/15/124 153/3/153 159/3/159 
f 125/16/125 140/8/140 157/4/157 151/4/151 
f 141/3/141 127/3/127 154/3/154 160/3/160 
f 128/3/128 142/3/142 159/3/159 153/3/153 
f 143/8/143 130/16/130 155/4/155 161/4/161 
f 131/17/131 144/7/144 160/3/160 154/3/154 
f 145/11/145 133/18/133 156/5/156 162/5/162 
f 134/13/134 146/10/146 161/4/161 155/4/155 
f 147/5/147 135/5/135 152/5/152 158/5/158 
f 136/5/136 148/5/148 162/5/162 156/5/156 
f 141/3/141 160/3/160 163/3/163 164/3/164 
f 160/3/160 144/7/144 165/7/165 163/3/163 
f 144/7/144 143/8/143 166/8/166 165/7/165 
f 143/8/143 161/4/161 167/4/167 166/8/166 
f 161/4/161 146/10/146 168/10/168 167/4/167 
f 146/10/146 145/11/145 169/11/169 168/10/168 
f 145/11/145 162/5/162 170/5/170 169/11/169 
f 162/5/162 148/5/148 171/5/171 170/5/170 
f 148/5/148 147/5/147 172/5/172 171/5/171 
s 1
f 147/5/147 158/5/158 173/5/173 172/5/172 
f 158/5/158 138/12/138 174/12/174 173/5/173 
s 2
f 138/12/138 137/10/137 175/10/175 174/12/174 
f 137/10/137 157/4/157 176/4/176 175/10/175 
f 157/4/157 140/8/140 177/8/177 176/4/176 
f 140/8/140 139/9/139 178/9/178 177/8/177 
s 1
f 139/9/139 159/3/159 179/3/179 178/9/178 
f 159/3/159 142/3/142 180/3/180 179/3/179 
s 8
f 142/3/142 141/3/141 164/3/164 180/3/180 
s 2
f 163/3/163 37/3/37 36/3/36 164/3/164 
f 165/7/165 38/7/38 37/3/37 163/3/163 
s 4
f 166/8/166 39/8/39 38/7/38 165/7/165 
f 167/4/167 149/4/149 39/8/39 166/8/166 
f 168/10/168 46/10/46 149/4/149 167/4/167 
f 169/11/169 47/11/47 46/10/46 168/10/168 
s 2
f 170/5/170 48/5/48 47/11/47 169/11/169 
f 171/5/171 49/5/49 48/5/48 170/5/170 
s 8
f 172/5/172 50/5/50 49/5/49 171/5/171 
s 4
f 173/5/173 51/5/51 50/5/50 172/5/172 
f 174/12/174 52/12/52 51/5/51 173/5/173 
f 175/10/175 53/10/53 52/12/52 174/12/174 
f 176/4/176 150/4/150 53/10/53 175/10/175 
f 177/8/177 42/8/42 150/4/150 176/4/176 
f 178/9/178 43/9/43 42/8/42 177/8/177 
f 179/3/179 44/3/44 43/9/43 178/9/178 
f 180/3/180 45/3/45 44/3/44 179/3/179 
s 8
f 164/3/164 36/3/36 45/3/45 180/3/180 
f 118/4/118 55/5/55 6/5/6 5/4/5 
s 1
f 181/5/181 182/19/182 183/20/183 184/21/184 185/22/185 186/6/186 187/6/187 188/23/188 189/24/189 190/25/190 191/26/191 192/5/192 
s 2
f 54/6/54 66/1/66 8/1/8 7/6/7 
s 4
f 66/1/66 60/2/60 17/2/17 8/1/8 
s 2
f 60/2/60 59/3/59 18/3/18 17/2/17 
s 4
f 59/3/59 118/4/118 5/4/5 18/3/18 
f 55/5/55 54/6/54 193/6/193 194/27/194 195/28/195 196/5/196 
f 54/6/54 7/6/7 197/6/197 198/6/198 199/6/199 193/6/193 
f 7/6/7 6/5/6 200/5/200 201/28/201 202/27/202 197/6/197 
f 6/5/6 55/5/55 196/5/196 203/5/203 204/5/204 200/5/200 
s 1
f 195/28/195 194/27/194 205/27/205 206/28/206 
s 2
f 199/6/199 198/6/198 207/6/207 208/6/208 
s 1
f 202/27/202 201/28/201 209/28/209 210/27/210 
s 2
f 204/5/204 203/5/203 211/5/211 212/5/212 
s 4
f 193/6/193 213/6/213 194/27/194 
f 195/28/195 214/5/214 196/5/196 
f 197/6/197 215/6/215 198/6/198 
f 199/6/199 213/6/213 193/6/193 
f 200/5/200 216/5/216 201/28/201 
f 202/27/202 215/6/215 197/6/197 
f 196/5/196 214/5/214 203/5/203 
f 204/5/204 216/5/216 200/5/200 
s 8
f 205/27/205 194/27/194 213/6/213 217/6/217 
f 195/28/195 206/28/206 218/5/218 214/5/214 
s 1
f 207/6/207 198/6/198 215/6/215 219/6/219 
s 8
f 199/6/199 208/6/208 217/6/217 213/6/213 
f 209/28/209 201/28/201 216/5/216 220/5/220 
s 1
f 202/27/202 210/27/210 219/6/219 215/6/215 
s 8
f 211/5/211 203/5/203 214/5/214 218/5/218 
f 204/5/204 212/5/212 220/5/220 216/5/216 
s 4
f 221/19/221 222/5/222 223/5/223 224/5/224 
f 225/20/225 221/19/221 224/5/224 226/28/226 
s 2
f 227/21/227 225/20/225 226/28/226 228/27/228 
s 4
f 229/22/229 227/21/227 228/27/228 230/6/230 
f 231/6/231 229/22/229 230/6/230 232/6/232 
s 1
f 233/6/233 231/6/231 232/6/232 234/6/234 
f 235/23/235 233/6/233 234/6/234 236/6/236 
f 237/24/237 235/23/235 236/6/236 238/27/238 
f 239/25/239 237/24/237 238/27/238 240/28/240 
f 241/26/241 239/25/239 240/28/240 242/5/242 
f 243/5/243 241/26/241 242/5/242 244/5/244 
f 222/5/222 243/5/243 244/5/244 223/5/223 
s 2
f 206/28/206 205/27/205 228/27/228 226/28/226 
s 1
f 208/6/208 207/6/207 234/6/234 232/6/232 
f 210/27/210 209/28/209 240/28/240 238/27/238 
f 212/5/212 211/5/211 223/5/223 244/5/244 
s 4
f 205/27/205 217/6/217 230/6/230 228/27/228 
f 218/5/218 206/28/206 226/28/226 224/5/224 
s 1
f 207/6/207 219/6/219 236/6/236 234/6/234 
s 4
f 217/6/217 208/6/208 232/6/232 230/6/230 
s 1
f 209/28/209 220/5/220 242/5/242 240/28/240 
f 219/6/219 210/27/210 238/27/238 236/6/236 
s 4
f 211/5/211 218/5/218 224/5/224 223/5/223 
s 1
f 220/5/220 212/5/212 244/5/244 242/5/242 
s off
f 222/5/222 221/19/221 182/19/182 181/5/181 
f 221/19/221 225/20/225 183/20/183 182/19/182 
f 225/20/225 227/21/227 184/21/184 183/20/183 
f 227/21/227 229/22/229 185/22/185 184/21/184 
f 229/22/229 231/6/231 186/6/186 185/22/185 
f 231/6/231 233/6/233 187/6/187 186/6/186 
f 233/6/233 235/23/235 188/23/188 187/6/187 
f 235/23/235 237/24/237 189/24/189 188/23/188 
f 237/24/237 239/25/239 190/25/190 189/24/189 
f 239/25/239 241/26/241 191/26/191 190/25/190 
f 241/26/241 243/5/243 192/5/192 191/26/191 
f 243/5/243 222/5/222 181/5/181 192/5/192 
# 206 polygons - 32 triangles

